<mxfile host="app.diagrams.net" modified="2021-05-31T00:59:03.696Z" agent="5.0 (Macintosh; Intel Mac OS X 10_15_7) AppleWebKit/537.36 (KHTML, like Gecko) Chrome/90.0.4430.212 Safari/537.36" etag="iibiKbluIyBioZeVDJ-H" version="14.6.11" type="github" pages="5">
  <diagram id="XM_K2wiYVqb33jWR9BrB" name="hierarchy">
    <mxGraphModel dx="2170" dy="764" grid="1" gridSize="10" guides="1" tooltips="1" connect="1" arrows="1" fold="1" page="1" pageScale="1" pageWidth="827" pageHeight="1169" math="0" shadow="0">
      <root>
        <mxCell id="0" />
        <mxCell id="1" parent="0" />
        <mxCell id="9zx5f4cCp2L7QrvtJqsd-1" value="Profit_and_loss_calculation" style="rounded=0;whiteSpace=wrap;html=1;" vertex="1" parent="1">
          <mxGeometry x="320" y="120" width="200" height="80" as="geometry" />
        </mxCell>
        <mxCell id="9zx5f4cCp2L7QrvtJqsd-2" value="calculate_penjualan" style="rounded=0;whiteSpace=wrap;html=1;" vertex="1" parent="1">
          <mxGeometry x="-40" y="320" width="120" height="80" as="geometry" />
        </mxCell>
        <mxCell id="9zx5f4cCp2L7QrvtJqsd-3" value="calculate_pembelian" style="rounded=0;whiteSpace=wrap;html=1;" vertex="1" parent="1">
          <mxGeometry x="120" y="320" width="120" height="80" as="geometry" />
        </mxCell>
        <mxCell id="9zx5f4cCp2L7QrvtJqsd-4" value="&lt;span&gt;calculate_hpp&lt;/span&gt;" style="rounded=0;whiteSpace=wrap;html=1;" vertex="1" parent="1">
          <mxGeometry x="280" y="320" width="120" height="80" as="geometry" />
        </mxCell>
        <mxCell id="9zx5f4cCp2L7QrvtJqsd-5" value="&lt;span&gt;calculate_beban&lt;/span&gt;" style="rounded=0;whiteSpace=wrap;html=1;" vertex="1" parent="1">
          <mxGeometry x="440" y="320" width="120" height="80" as="geometry" />
        </mxCell>
        <mxCell id="9zx5f4cCp2L7QrvtJqsd-6" value="&lt;span&gt;calculate_laba kotor&lt;/span&gt;" style="rounded=0;whiteSpace=wrap;html=1;" vertex="1" parent="1">
          <mxGeometry x="600" y="320" width="120" height="80" as="geometry" />
        </mxCell>
        <mxCell id="9zx5f4cCp2L7QrvtJqsd-7" value="&lt;span&gt;calculate_laba_bersih&lt;/span&gt;" style="rounded=0;whiteSpace=wrap;html=1;" vertex="1" parent="1">
          <mxGeometry x="760" y="320" width="120" height="80" as="geometry" />
        </mxCell>
        <mxCell id="9zx5f4cCp2L7QrvtJqsd-10" value="" style="endArrow=none;html=1;exitX=0.5;exitY=0;exitDx=0;exitDy=0;entryX=0.5;entryY=1;entryDx=0;entryDy=0;" edge="1" parent="1" source="9zx5f4cCp2L7QrvtJqsd-2" target="9zx5f4cCp2L7QrvtJqsd-1">
          <mxGeometry width="50" height="50" relative="1" as="geometry">
            <mxPoint x="590" y="590" as="sourcePoint" />
            <mxPoint x="640" y="540" as="targetPoint" />
            <Array as="points">
              <mxPoint x="20" y="240" />
              <mxPoint x="420" y="240" />
            </Array>
          </mxGeometry>
        </mxCell>
        <mxCell id="9zx5f4cCp2L7QrvtJqsd-11" value="" style="endArrow=none;html=1;exitX=0.5;exitY=0;exitDx=0;exitDy=0;entryX=0.5;entryY=1;entryDx=0;entryDy=0;" edge="1" parent="1" source="9zx5f4cCp2L7QrvtJqsd-3" target="9zx5f4cCp2L7QrvtJqsd-1">
          <mxGeometry width="50" height="50" relative="1" as="geometry">
            <mxPoint x="30" y="330" as="sourcePoint" />
            <mxPoint x="430" y="210" as="targetPoint" />
            <Array as="points">
              <mxPoint x="180" y="240" />
              <mxPoint x="420" y="240" />
            </Array>
          </mxGeometry>
        </mxCell>
        <mxCell id="9zx5f4cCp2L7QrvtJqsd-12" value="" style="endArrow=none;html=1;exitX=0.5;exitY=0;exitDx=0;exitDy=0;entryX=0.5;entryY=1;entryDx=0;entryDy=0;" edge="1" parent="1" source="9zx5f4cCp2L7QrvtJqsd-4" target="9zx5f4cCp2L7QrvtJqsd-1">
          <mxGeometry width="50" height="50" relative="1" as="geometry">
            <mxPoint x="190" y="330" as="sourcePoint" />
            <mxPoint x="430" y="210" as="targetPoint" />
            <Array as="points">
              <mxPoint x="340" y="240" />
              <mxPoint x="420" y="240" />
            </Array>
          </mxGeometry>
        </mxCell>
        <mxCell id="9zx5f4cCp2L7QrvtJqsd-13" value="" style="endArrow=none;html=1;entryX=0.5;entryY=1;entryDx=0;entryDy=0;exitX=0.5;exitY=0;exitDx=0;exitDy=0;" edge="1" parent="1" source="9zx5f4cCp2L7QrvtJqsd-5" target="9zx5f4cCp2L7QrvtJqsd-1">
          <mxGeometry width="50" height="50" relative="1" as="geometry">
            <mxPoint x="680" y="230" as="sourcePoint" />
            <mxPoint x="730" y="180" as="targetPoint" />
            <Array as="points">
              <mxPoint x="500" y="240" />
              <mxPoint x="420" y="240" />
            </Array>
          </mxGeometry>
        </mxCell>
        <mxCell id="9zx5f4cCp2L7QrvtJqsd-14" value="" style="endArrow=none;html=1;entryX=0.5;entryY=1;entryDx=0;entryDy=0;exitX=0.5;exitY=0;exitDx=0;exitDy=0;" edge="1" parent="1" source="9zx5f4cCp2L7QrvtJqsd-6" target="9zx5f4cCp2L7QrvtJqsd-1">
          <mxGeometry width="50" height="50" relative="1" as="geometry">
            <mxPoint x="510" y="330" as="sourcePoint" />
            <mxPoint x="430" y="210" as="targetPoint" />
            <Array as="points">
              <mxPoint x="660" y="240" />
              <mxPoint x="420" y="240" />
            </Array>
          </mxGeometry>
        </mxCell>
        <mxCell id="9zx5f4cCp2L7QrvtJqsd-15" value="" style="endArrow=none;html=1;entryX=0.5;entryY=1;entryDx=0;entryDy=0;exitX=0.5;exitY=0;exitDx=0;exitDy=0;" edge="1" parent="1" source="9zx5f4cCp2L7QrvtJqsd-7" target="9zx5f4cCp2L7QrvtJqsd-1">
          <mxGeometry width="50" height="50" relative="1" as="geometry">
            <mxPoint x="670" y="330" as="sourcePoint" />
            <mxPoint x="430" y="210" as="targetPoint" />
            <Array as="points">
              <mxPoint x="820" y="240" />
              <mxPoint x="420" y="240" />
            </Array>
          </mxGeometry>
        </mxCell>
      </root>
    </mxGraphModel>
  </diagram>
  <diagram id="MfFmVJmB6-JHeDHcO_0P" name="use-case">
    <mxGraphModel dx="1119" dy="637" grid="1" gridSize="10" guides="1" tooltips="1" connect="1" arrows="1" fold="1" page="1" pageScale="1" pageWidth="827" pageHeight="1169" math="0" shadow="0">
      <root>
        <mxCell id="g8HdEaGY4Fd2D8q3kcrE-0" />
        <mxCell id="g8HdEaGY4Fd2D8q3kcrE-1" parent="g8HdEaGY4Fd2D8q3kcrE-0" />
        <mxCell id="g8HdEaGY4Fd2D8q3kcrE-2" value="" style="whiteSpace=wrap;html=1;aspect=fixed;" vertex="1" parent="g8HdEaGY4Fd2D8q3kcrE-1">
          <mxGeometry x="240" y="80" width="280" height="280" as="geometry" />
        </mxCell>
        <mxCell id="g8HdEaGY4Fd2D8q3kcrE-3" value="Shop Use Case" style="text;html=1;align=center;verticalAlign=middle;resizable=0;points=[];autosize=1;strokeColor=none;" vertex="1" parent="g8HdEaGY4Fd2D8q3kcrE-1">
          <mxGeometry x="330" y="60" width="100" height="20" as="geometry" />
        </mxCell>
        <mxCell id="g8HdEaGY4Fd2D8q3kcrE-4" value="Staff" style="shape=umlActor;verticalLabelPosition=bottom;verticalAlign=top;html=1;" vertex="1" parent="g8HdEaGY4Fd2D8q3kcrE-1">
          <mxGeometry x="170" y="200" width="20" height="40" as="geometry" />
        </mxCell>
        <mxCell id="g8HdEaGY4Fd2D8q3kcrE-7" value="&lt;font style=&quot;font-size: 10px&quot;&gt;Input car data&lt;/font&gt;" style="ellipse;whiteSpace=wrap;html=1;" vertex="1" parent="g8HdEaGY4Fd2D8q3kcrE-1">
          <mxGeometry x="340" y="140" width="80" height="40" as="geometry" />
        </mxCell>
        <mxCell id="g8HdEaGY4Fd2D8q3kcrE-8" value="&lt;font style=&quot;font-size: 10px&quot;&gt;Login&lt;/font&gt;" style="ellipse;whiteSpace=wrap;html=1;" vertex="1" parent="g8HdEaGY4Fd2D8q3kcrE-1">
          <mxGeometry x="340" y="90" width="80" height="40" as="geometry" />
        </mxCell>
        <mxCell id="g8HdEaGY4Fd2D8q3kcrE-9" value="&lt;font style=&quot;font-size: 10px&quot;&gt;Input mechanics data&lt;/font&gt;" style="ellipse;whiteSpace=wrap;html=1;" vertex="1" parent="g8HdEaGY4Fd2D8q3kcrE-1">
          <mxGeometry x="340" y="190" width="80" height="40" as="geometry" />
        </mxCell>
        <mxCell id="g8HdEaGY4Fd2D8q3kcrE-10" value="&lt;font style=&quot;font-size: 10px&quot;&gt;Input Receipt&lt;/font&gt;" style="ellipse;whiteSpace=wrap;html=1;" vertex="1" parent="g8HdEaGY4Fd2D8q3kcrE-1">
          <mxGeometry x="340" y="240" width="80" height="40" as="geometry" />
        </mxCell>
        <mxCell id="g8HdEaGY4Fd2D8q3kcrE-11" value="&lt;font style=&quot;font-size: 9px&quot;&gt;Get Histories Car service&lt;/font&gt;" style="ellipse;whiteSpace=wrap;html=1;" vertex="1" parent="g8HdEaGY4Fd2D8q3kcrE-1">
          <mxGeometry x="340" y="290" width="80" height="40" as="geometry" />
        </mxCell>
        <mxCell id="g8HdEaGY4Fd2D8q3kcrE-19" value="" style="endArrow=none;html=1;entryX=0;entryY=0.5;entryDx=0;entryDy=0;exitX=1;exitY=0.3333333333333333;exitDx=0;exitDy=0;exitPerimeter=0;" edge="1" parent="g8HdEaGY4Fd2D8q3kcrE-1" source="g8HdEaGY4Fd2D8q3kcrE-4" target="g8HdEaGY4Fd2D8q3kcrE-8">
          <mxGeometry width="50" height="50" relative="1" as="geometry">
            <mxPoint x="50" y="140" as="sourcePoint" />
            <mxPoint x="100" y="90" as="targetPoint" />
          </mxGeometry>
        </mxCell>
        <mxCell id="g8HdEaGY4Fd2D8q3kcrE-21" value="" style="endArrow=none;html=1;exitX=1;exitY=0.3333333333333333;exitDx=0;exitDy=0;exitPerimeter=0;entryX=0;entryY=0.5;entryDx=0;entryDy=0;" edge="1" parent="g8HdEaGY4Fd2D8q3kcrE-1" source="g8HdEaGY4Fd2D8q3kcrE-4" target="g8HdEaGY4Fd2D8q3kcrE-7">
          <mxGeometry width="50" height="50" relative="1" as="geometry">
            <mxPoint x="100" y="150" as="sourcePoint" />
            <mxPoint x="150" y="100" as="targetPoint" />
          </mxGeometry>
        </mxCell>
        <mxCell id="g8HdEaGY4Fd2D8q3kcrE-22" value="" style="endArrow=none;html=1;entryX=-0.004;entryY=0.61;entryDx=0;entryDy=0;entryPerimeter=0;exitX=1;exitY=0.3333333333333333;exitDx=0;exitDy=0;exitPerimeter=0;" edge="1" parent="g8HdEaGY4Fd2D8q3kcrE-1" source="g8HdEaGY4Fd2D8q3kcrE-4" target="g8HdEaGY4Fd2D8q3kcrE-9">
          <mxGeometry width="50" height="50" relative="1" as="geometry">
            <mxPoint x="110" y="160" as="sourcePoint" />
            <mxPoint x="160" y="110" as="targetPoint" />
          </mxGeometry>
        </mxCell>
        <mxCell id="g8HdEaGY4Fd2D8q3kcrE-23" value="" style="endArrow=none;html=1;entryX=0;entryY=0.5;entryDx=0;entryDy=0;exitX=1;exitY=0.3333333333333333;exitDx=0;exitDy=0;exitPerimeter=0;" edge="1" parent="g8HdEaGY4Fd2D8q3kcrE-1" source="g8HdEaGY4Fd2D8q3kcrE-4" target="g8HdEaGY4Fd2D8q3kcrE-10">
          <mxGeometry width="50" height="50" relative="1" as="geometry">
            <mxPoint x="100" y="120" as="sourcePoint" />
            <mxPoint x="150" y="70" as="targetPoint" />
          </mxGeometry>
        </mxCell>
        <mxCell id="g8HdEaGY4Fd2D8q3kcrE-24" value="" style="endArrow=none;html=1;entryX=0;entryY=0.5;entryDx=0;entryDy=0;exitX=1;exitY=0.3333333333333333;exitDx=0;exitDy=0;exitPerimeter=0;" edge="1" parent="g8HdEaGY4Fd2D8q3kcrE-1" source="g8HdEaGY4Fd2D8q3kcrE-4" target="g8HdEaGY4Fd2D8q3kcrE-11">
          <mxGeometry width="50" height="50" relative="1" as="geometry">
            <mxPoint x="60" y="130" as="sourcePoint" />
            <mxPoint x="110" y="80" as="targetPoint" />
          </mxGeometry>
        </mxCell>
      </root>
    </mxGraphModel>
  </diagram>
  <diagram id="1zhzddf2nSxrzDgoqq-6" name="activity-diagram">
    <mxGraphModel dx="1621" dy="922" grid="1" gridSize="10" guides="1" tooltips="1" connect="1" arrows="1" fold="1" page="1" pageScale="1" pageWidth="827" pageHeight="1169" math="0" shadow="0">
      <root>
        <mxCell id="rL3im4bN-XDnyFig3MSZ-0" />
        <mxCell id="rL3im4bN-XDnyFig3MSZ-1" parent="rL3im4bN-XDnyFig3MSZ-0" />
        <mxCell id="rL3im4bN-XDnyFig3MSZ-9" value="" style="edgeStyle=orthogonalEdgeStyle;rounded=0;orthogonalLoop=1;jettySize=auto;html=1;" edge="1" parent="rL3im4bN-XDnyFig3MSZ-1" source="rL3im4bN-XDnyFig3MSZ-2" target="rL3im4bN-XDnyFig3MSZ-4">
          <mxGeometry relative="1" as="geometry" />
        </mxCell>
        <mxCell id="rL3im4bN-XDnyFig3MSZ-2" value="" style="ellipse;fillColor=#000000;strokeColor=none;" vertex="1" parent="rL3im4bN-XDnyFig3MSZ-1">
          <mxGeometry x="400" y="120" width="40" height="40" as="geometry" />
        </mxCell>
        <mxCell id="rL3im4bN-XDnyFig3MSZ-10" style="edgeStyle=orthogonalEdgeStyle;rounded=0;orthogonalLoop=1;jettySize=auto;html=1;entryX=0.5;entryY=0;entryDx=0;entryDy=0;" edge="1" parent="rL3im4bN-XDnyFig3MSZ-1" source="rL3im4bN-XDnyFig3MSZ-4" target="rL3im4bN-XDnyFig3MSZ-5">
          <mxGeometry relative="1" as="geometry">
            <mxPoint x="420" y="270" as="targetPoint" />
          </mxGeometry>
        </mxCell>
        <mxCell id="rL3im4bN-XDnyFig3MSZ-4" value="Login&amp;nbsp;" style="html=1;dashed=0;whitespace=wrap;" vertex="1" parent="rL3im4bN-XDnyFig3MSZ-1">
          <mxGeometry x="370" y="200" width="100" height="50" as="geometry" />
        </mxCell>
        <mxCell id="rL3im4bN-XDnyFig3MSZ-12" style="edgeStyle=orthogonalEdgeStyle;rounded=0;orthogonalLoop=1;jettySize=auto;html=1;entryX=1.004;entryY=0.405;entryDx=0;entryDy=0;entryPerimeter=0;" edge="1" parent="rL3im4bN-XDnyFig3MSZ-1" source="rL3im4bN-XDnyFig3MSZ-5" target="rL3im4bN-XDnyFig3MSZ-4">
          <mxGeometry relative="1" as="geometry">
            <Array as="points">
              <mxPoint x="490" y="340" />
              <mxPoint x="490" y="220" />
            </Array>
          </mxGeometry>
        </mxCell>
        <mxCell id="rL3im4bN-XDnyFig3MSZ-13" value="No" style="edgeLabel;html=1;align=center;verticalAlign=middle;resizable=0;points=[];" vertex="1" connectable="0" parent="rL3im4bN-XDnyFig3MSZ-12">
          <mxGeometry x="0.0263" relative="1" as="geometry">
            <mxPoint as="offset" />
          </mxGeometry>
        </mxCell>
        <mxCell id="rL3im4bN-XDnyFig3MSZ-14" value="Yes" style="edgeStyle=orthogonalEdgeStyle;rounded=0;orthogonalLoop=1;jettySize=auto;html=1;entryX=0.5;entryY=0;entryDx=0;entryDy=0;" edge="1" parent="rL3im4bN-XDnyFig3MSZ-1" source="rL3im4bN-XDnyFig3MSZ-5" target="rL3im4bN-XDnyFig3MSZ-6">
          <mxGeometry relative="1" as="geometry" />
        </mxCell>
        <mxCell id="rL3im4bN-XDnyFig3MSZ-5" value="verified?" style="rhombus;whiteSpace=wrap;html=1;" vertex="1" parent="rL3im4bN-XDnyFig3MSZ-1">
          <mxGeometry x="380" y="300" width="80" height="80" as="geometry" />
        </mxCell>
        <mxCell id="rL3im4bN-XDnyFig3MSZ-15" style="edgeStyle=orthogonalEdgeStyle;rounded=0;orthogonalLoop=1;jettySize=auto;html=1;" edge="1" parent="rL3im4bN-XDnyFig3MSZ-1" source="rL3im4bN-XDnyFig3MSZ-6" target="rL3im4bN-XDnyFig3MSZ-7">
          <mxGeometry relative="1" as="geometry" />
        </mxCell>
        <mxCell id="rL3im4bN-XDnyFig3MSZ-6" value="Input Car data" style="html=1;dashed=0;whitespace=wrap;" vertex="1" parent="rL3im4bN-XDnyFig3MSZ-1">
          <mxGeometry x="370" y="440" width="100" height="50" as="geometry" />
        </mxCell>
        <mxCell id="rL3im4bN-XDnyFig3MSZ-16" style="edgeStyle=orthogonalEdgeStyle;rounded=0;orthogonalLoop=1;jettySize=auto;html=1;entryX=0.5;entryY=0;entryDx=0;entryDy=0;" edge="1" parent="rL3im4bN-XDnyFig3MSZ-1" source="rL3im4bN-XDnyFig3MSZ-7" target="rL3im4bN-XDnyFig3MSZ-8">
          <mxGeometry relative="1" as="geometry" />
        </mxCell>
        <mxCell id="rL3im4bN-XDnyFig3MSZ-7" value="Input Mechanics&lt;br&gt;&amp;nbsp;data" style="html=1;dashed=0;whitespace=wrap;" vertex="1" parent="rL3im4bN-XDnyFig3MSZ-1">
          <mxGeometry x="370" y="560" width="100" height="50" as="geometry" />
        </mxCell>
        <mxCell id="rL3im4bN-XDnyFig3MSZ-18" style="edgeStyle=orthogonalEdgeStyle;rounded=0;orthogonalLoop=1;jettySize=auto;html=1;entryX=0.5;entryY=0;entryDx=0;entryDy=0;" edge="1" parent="rL3im4bN-XDnyFig3MSZ-1" source="rL3im4bN-XDnyFig3MSZ-8" target="rL3im4bN-XDnyFig3MSZ-17">
          <mxGeometry relative="1" as="geometry" />
        </mxCell>
        <mxCell id="rL3im4bN-XDnyFig3MSZ-8" value="Input Receipt&lt;br&gt;&amp;nbsp;data" style="html=1;dashed=0;whitespace=wrap;" vertex="1" parent="rL3im4bN-XDnyFig3MSZ-1">
          <mxGeometry x="370" y="680" width="100" height="50" as="geometry" />
        </mxCell>
        <mxCell id="rL3im4bN-XDnyFig3MSZ-17" value="" style="ellipse;html=1;shape=endState;fillColor=#000000;strokeColor=#000000;" vertex="1" parent="rL3im4bN-XDnyFig3MSZ-1">
          <mxGeometry x="405" y="780" width="30" height="30" as="geometry" />
        </mxCell>
      </root>
    </mxGraphModel>
  </diagram>
  <diagram id="9r0A7UHokeph7ixIL-eO" name="class diagram">
    <mxGraphModel dx="1343" dy="764" grid="1" gridSize="10" guides="1" tooltips="1" connect="1" arrows="1" fold="1" page="1" pageScale="1" pageWidth="827" pageHeight="1169" math="0" shadow="0">
      <root>
        <mxCell id="5LYVt8zB139youL8tXqR-0" />
        <mxCell id="5LYVt8zB139youL8tXqR-1" parent="5LYVt8zB139youL8tXqR-0" />
        <mxCell id="5LYVt8zB139youL8tXqR-2" value="User" style="swimlane;fontStyle=0;childLayout=stackLayout;horizontal=1;startSize=26;fillColor=none;horizontalStack=0;resizeParent=1;resizeParentMax=0;resizeLast=0;collapsible=1;marginBottom=0;" vertex="1" parent="5LYVt8zB139youL8tXqR-1">
          <mxGeometry x="124" y="80" width="140" height="104" as="geometry" />
        </mxCell>
        <mxCell id="5LYVt8zB139youL8tXqR-3" value="+ int: id" style="text;strokeColor=none;fillColor=none;align=left;verticalAlign=top;spacingLeft=4;spacingRight=4;overflow=hidden;rotatable=0;points=[[0,0.5],[1,0.5]];portConstraint=eastwest;" vertex="1" parent="5LYVt8zB139youL8tXqR-2">
          <mxGeometry y="26" width="140" height="26" as="geometry" />
        </mxCell>
        <mxCell id="5LYVt8zB139youL8tXqR-4" value="+ String username" style="text;strokeColor=none;fillColor=none;align=left;verticalAlign=top;spacingLeft=4;spacingRight=4;overflow=hidden;rotatable=0;points=[[0,0.5],[1,0.5]];portConstraint=eastwest;" vertex="1" parent="5LYVt8zB139youL8tXqR-2">
          <mxGeometry y="52" width="140" height="26" as="geometry" />
        </mxCell>
        <mxCell id="5LYVt8zB139youL8tXqR-5" value="+ String password" style="text;strokeColor=none;fillColor=none;align=left;verticalAlign=top;spacingLeft=4;spacingRight=4;overflow=hidden;rotatable=0;points=[[0,0.5],[1,0.5]];portConstraint=eastwest;" vertex="1" parent="5LYVt8zB139youL8tXqR-2">
          <mxGeometry y="78" width="140" height="26" as="geometry" />
        </mxCell>
        <mxCell id="5LYVt8zB139youL8tXqR-6" value="Customer" style="swimlane;fontStyle=0;childLayout=stackLayout;horizontal=1;startSize=26;fillColor=none;horizontalStack=0;resizeParent=1;resizeParentMax=0;resizeLast=0;collapsible=1;marginBottom=0;" vertex="1" parent="5LYVt8zB139youL8tXqR-1">
          <mxGeometry x="354" y="80" width="140" height="78" as="geometry" />
        </mxCell>
        <mxCell id="5LYVt8zB139youL8tXqR-7" value="+ int: id" style="text;strokeColor=none;fillColor=none;align=left;verticalAlign=top;spacingLeft=4;spacingRight=4;overflow=hidden;rotatable=0;points=[[0,0.5],[1,0.5]];portConstraint=eastwest;" vertex="1" parent="5LYVt8zB139youL8tXqR-6">
          <mxGeometry y="26" width="140" height="26" as="geometry" />
        </mxCell>
        <mxCell id="5LYVt8zB139youL8tXqR-8" value="+ String name" style="text;strokeColor=none;fillColor=none;align=left;verticalAlign=top;spacingLeft=4;spacingRight=4;overflow=hidden;rotatable=0;points=[[0,0.5],[1,0.5]];portConstraint=eastwest;" vertex="1" parent="5LYVt8zB139youL8tXqR-6">
          <mxGeometry y="52" width="140" height="26" as="geometry" />
        </mxCell>
        <mxCell id="5LYVt8zB139youL8tXqR-10" value="Car" style="swimlane;fontStyle=0;childLayout=stackLayout;horizontal=1;startSize=26;fillColor=none;horizontalStack=0;resizeParent=1;resizeParentMax=0;resizeLast=0;collapsible=1;marginBottom=0;" vertex="1" parent="5LYVt8zB139youL8tXqR-1">
          <mxGeometry x="564" y="80" width="140" height="320" as="geometry" />
        </mxCell>
        <mxCell id="5LYVt8zB139youL8tXqR-11" value="+ int: id" style="text;strokeColor=none;fillColor=none;align=left;verticalAlign=top;spacingLeft=4;spacingRight=4;overflow=hidden;rotatable=0;points=[[0,0.5],[1,0.5]];portConstraint=eastwest;" vertex="1" parent="5LYVt8zB139youL8tXqR-10">
          <mxGeometry y="26" width="140" height="26" as="geometry" />
        </mxCell>
        <mxCell id="5LYVt8zB139youL8tXqR-22" value="+ String no_police" style="text;strokeColor=none;fillColor=none;align=left;verticalAlign=top;spacingLeft=4;spacingRight=4;overflow=hidden;rotatable=0;points=[[0,0.5],[1,0.5]];portConstraint=eastwest;" vertex="1" parent="5LYVt8zB139youL8tXqR-10">
          <mxGeometry y="52" width="140" height="26" as="geometry" />
        </mxCell>
        <mxCell id="5LYVt8zB139youL8tXqR-23" value="+ int customer_id" style="text;strokeColor=none;fillColor=none;align=left;verticalAlign=top;spacingLeft=4;spacingRight=4;overflow=hidden;rotatable=0;points=[[0,0.5],[1,0.5]];portConstraint=eastwest;" vertex="1" parent="5LYVt8zB139youL8tXqR-10">
          <mxGeometry y="78" width="140" height="26" as="geometry" />
        </mxCell>
        <mxCell id="5LYVt8zB139youL8tXqR-24" value="+ String cust_code" style="text;strokeColor=none;fillColor=none;align=left;verticalAlign=top;spacingLeft=4;spacingRight=4;overflow=hidden;rotatable=0;points=[[0,0.5],[1,0.5]];portConstraint=eastwest;" vertex="1" parent="5LYVt8zB139youL8tXqR-10">
          <mxGeometry y="104" width="140" height="26" as="geometry" />
        </mxCell>
        <mxCell id="5LYVt8zB139youL8tXqR-25" value="+ String no_stnk" style="text;strokeColor=none;fillColor=none;align=left;verticalAlign=top;spacingLeft=4;spacingRight=4;overflow=hidden;rotatable=0;points=[[0,0.5],[1,0.5]];portConstraint=eastwest;" vertex="1" parent="5LYVt8zB139youL8tXqR-10">
          <mxGeometry y="130" width="140" height="26" as="geometry" />
        </mxCell>
        <mxCell id="5LYVt8zB139youL8tXqR-26" value="+ String type" style="text;strokeColor=none;fillColor=none;align=left;verticalAlign=top;spacingLeft=4;spacingRight=4;overflow=hidden;rotatable=0;points=[[0,0.5],[1,0.5]];portConstraint=eastwest;" vertex="1" parent="5LYVt8zB139youL8tXqR-10">
          <mxGeometry y="156" width="140" height="26" as="geometry" />
        </mxCell>
        <mxCell id="5LYVt8zB139youL8tXqR-27" value="+ String color" style="text;strokeColor=none;fillColor=none;align=left;verticalAlign=top;spacingLeft=4;spacingRight=4;overflow=hidden;rotatable=0;points=[[0,0.5],[1,0.5]];portConstraint=eastwest;" vertex="1" parent="5LYVt8zB139youL8tXqR-10">
          <mxGeometry y="182" width="140" height="26" as="geometry" />
        </mxCell>
        <mxCell id="5LYVt8zB139youL8tXqR-28" value="+ int machine_number" style="text;strokeColor=none;fillColor=none;align=left;verticalAlign=top;spacingLeft=4;spacingRight=4;overflow=hidden;rotatable=0;points=[[0,0.5],[1,0.5]];portConstraint=eastwest;" vertex="1" parent="5LYVt8zB139youL8tXqR-10">
          <mxGeometry y="208" width="140" height="26" as="geometry" />
        </mxCell>
        <mxCell id="5LYVt8zB139youL8tXqR-29" value="+ int frame_number" style="text;strokeColor=none;fillColor=none;align=left;verticalAlign=top;spacingLeft=4;spacingRight=4;overflow=hidden;rotatable=0;points=[[0,0.5],[1,0.5]];portConstraint=eastwest;" vertex="1" parent="5LYVt8zB139youL8tXqR-10">
          <mxGeometry y="234" width="140" height="26" as="geometry" />
        </mxCell>
        <mxCell id="5LYVt8zB139youL8tXqR-30" value="+ int year_assembly" style="text;strokeColor=none;fillColor=none;align=left;verticalAlign=top;spacingLeft=4;spacingRight=4;overflow=hidden;rotatable=0;points=[[0,0.5],[1,0.5]];portConstraint=eastwest;" vertex="1" parent="5LYVt8zB139youL8tXqR-10">
          <mxGeometry y="260" width="140" height="26" as="geometry" />
        </mxCell>
        <mxCell id="5LYVt8zB139youL8tXqR-12" value="+ int cylinder&#xa;" style="text;strokeColor=none;fillColor=none;align=left;verticalAlign=top;spacingLeft=4;spacingRight=4;overflow=hidden;rotatable=0;points=[[0,0.5],[1,0.5]];portConstraint=eastwest;" vertex="1" parent="5LYVt8zB139youL8tXqR-10">
          <mxGeometry y="286" width="140" height="34" as="geometry" />
        </mxCell>
        <mxCell id="5LYVt8zB139youL8tXqR-16" value="Mechanics" style="swimlane;fontStyle=0;childLayout=stackLayout;horizontal=1;startSize=26;fillColor=none;horizontalStack=0;resizeParent=1;resizeParentMax=0;resizeLast=0;collapsible=1;marginBottom=0;" vertex="1" parent="5LYVt8zB139youL8tXqR-1">
          <mxGeometry x="124" y="240" width="140" height="224" as="geometry" />
        </mxCell>
        <mxCell id="5LYVt8zB139youL8tXqR-17" value="+ int id" style="text;strokeColor=none;fillColor=none;align=left;verticalAlign=top;spacingLeft=4;spacingRight=4;overflow=hidden;rotatable=0;points=[[0,0.5],[1,0.5]];portConstraint=eastwest;" vertex="1" parent="5LYVt8zB139youL8tXqR-16">
          <mxGeometry y="26" width="140" height="26" as="geometry" />
        </mxCell>
        <mxCell id="5LYVt8zB139youL8tXqR-18" value="+ String code_mechanic" style="text;strokeColor=none;fillColor=none;align=left;verticalAlign=top;spacingLeft=4;spacingRight=4;overflow=hidden;rotatable=0;points=[[0,0.5],[1,0.5]];portConstraint=eastwest;" vertex="1" parent="5LYVt8zB139youL8tXqR-16">
          <mxGeometry y="52" width="140" height="26" as="geometry" />
        </mxCell>
        <mxCell id="5LYVt8zB139youL8tXqR-20" value="+ String mechanic_name" style="text;strokeColor=none;fillColor=none;align=left;verticalAlign=top;spacingLeft=4;spacingRight=4;overflow=hidden;rotatable=0;points=[[0,0.5],[1,0.5]];portConstraint=eastwest;" vertex="1" parent="5LYVt8zB139youL8tXqR-16">
          <mxGeometry y="78" width="140" height="26" as="geometry" />
        </mxCell>
        <mxCell id="5LYVt8zB139youL8tXqR-21" value="+ String address" style="text;strokeColor=none;fillColor=none;align=left;verticalAlign=top;spacingLeft=4;spacingRight=4;overflow=hidden;rotatable=0;points=[[0,0.5],[1,0.5]];portConstraint=eastwest;" vertex="1" parent="5LYVt8zB139youL8tXqR-16">
          <mxGeometry y="104" width="140" height="26" as="geometry" />
        </mxCell>
        <mxCell id="5LYVt8zB139youL8tXqR-31" value="+ String address" style="text;strokeColor=none;fillColor=none;align=left;verticalAlign=top;spacingLeft=4;spacingRight=4;overflow=hidden;rotatable=0;points=[[0,0.5],[1,0.5]];portConstraint=eastwest;" vertex="1" parent="5LYVt8zB139youL8tXqR-16">
          <mxGeometry y="130" width="140" height="26" as="geometry" />
        </mxCell>
        <mxCell id="5LYVt8zB139youL8tXqR-32" value="+ String phone_number&#xa;&#xa;" style="text;strokeColor=none;fillColor=none;align=left;verticalAlign=top;spacingLeft=4;spacingRight=4;overflow=hidden;rotatable=0;points=[[0,0.5],[1,0.5]];portConstraint=eastwest;" vertex="1" parent="5LYVt8zB139youL8tXqR-16">
          <mxGeometry y="156" width="140" height="24" as="geometry" />
        </mxCell>
        <mxCell id="5LYVt8zB139youL8tXqR-19" value="+ String city" style="text;strokeColor=none;fillColor=none;align=left;verticalAlign=top;spacingLeft=4;spacingRight=4;overflow=hidden;rotatable=0;points=[[0,0.5],[1,0.5]];portConstraint=eastwest;" vertex="1" parent="5LYVt8zB139youL8tXqR-16">
          <mxGeometry y="180" width="140" height="20" as="geometry" />
        </mxCell>
        <mxCell id="5LYVt8zB139youL8tXqR-35" value="+ String zipcode" style="text;strokeColor=none;fillColor=none;align=left;verticalAlign=top;spacingLeft=4;spacingRight=4;overflow=hidden;rotatable=0;points=[[0,0.5],[1,0.5]];portConstraint=eastwest;" vertex="1" parent="5LYVt8zB139youL8tXqR-16">
          <mxGeometry y="200" width="140" height="24" as="geometry" />
        </mxCell>
        <mxCell id="5LYVt8zB139youL8tXqR-36" value="Receipt" style="swimlane;fontStyle=0;childLayout=stackLayout;horizontal=1;startSize=26;fillColor=none;horizontalStack=0;resizeParent=1;resizeParentMax=0;resizeLast=0;collapsible=1;marginBottom=0;" vertex="1" parent="5LYVt8zB139youL8tXqR-1">
          <mxGeometry x="354" y="240" width="140" height="130" as="geometry" />
        </mxCell>
        <mxCell id="5LYVt8zB139youL8tXqR-37" value="+ int id" style="text;strokeColor=none;fillColor=none;align=left;verticalAlign=top;spacingLeft=4;spacingRight=4;overflow=hidden;rotatable=0;points=[[0,0.5],[1,0.5]];portConstraint=eastwest;" vertex="1" parent="5LYVt8zB139youL8tXqR-36">
          <mxGeometry y="26" width="140" height="26" as="geometry" />
        </mxCell>
        <mxCell id="5LYVt8zB139youL8tXqR-38" value="+ int car_id" style="text;strokeColor=none;fillColor=none;align=left;verticalAlign=top;spacingLeft=4;spacingRight=4;overflow=hidden;rotatable=0;points=[[0,0.5],[1,0.5]];portConstraint=eastwest;" vertex="1" parent="5LYVt8zB139youL8tXqR-36">
          <mxGeometry y="52" width="140" height="26" as="geometry" />
        </mxCell>
        <mxCell id="5LYVt8zB139youL8tXqR-39" value="+ int mechanic_id" style="text;strokeColor=none;fillColor=none;align=left;verticalAlign=top;spacingLeft=4;spacingRight=4;overflow=hidden;rotatable=0;points=[[0,0.5],[1,0.5]];portConstraint=eastwest;" vertex="1" parent="5LYVt8zB139youL8tXqR-36">
          <mxGeometry y="78" width="140" height="26" as="geometry" />
        </mxCell>
        <mxCell id="5LYVt8zB139youL8tXqR-50" value="+ int customer_id" style="text;strokeColor=none;fillColor=none;align=left;verticalAlign=top;spacingLeft=4;spacingRight=4;overflow=hidden;rotatable=0;points=[[0,0.5],[1,0.5]];portConstraint=eastwest;" vertex="1" parent="5LYVt8zB139youL8tXqR-36">
          <mxGeometry y="104" width="140" height="26" as="geometry" />
        </mxCell>
        <mxCell id="5LYVt8zB139youL8tXqR-45" style="edgeStyle=orthogonalEdgeStyle;rounded=0;orthogonalLoop=1;jettySize=auto;html=1;entryX=0;entryY=0.5;entryDx=0;entryDy=0;" edge="1" parent="5LYVt8zB139youL8tXqR-1" source="5LYVt8zB139youL8tXqR-7" target="5LYVt8zB139youL8tXqR-23">
          <mxGeometry relative="1" as="geometry" />
        </mxCell>
        <mxCell id="5LYVt8zB139youL8tXqR-48" style="edgeStyle=orthogonalEdgeStyle;rounded=0;orthogonalLoop=1;jettySize=auto;html=1;entryX=0;entryY=0.5;entryDx=0;entryDy=0;" edge="1" parent="5LYVt8zB139youL8tXqR-1" source="5LYVt8zB139youL8tXqR-38" target="5LYVt8zB139youL8tXqR-11">
          <mxGeometry relative="1" as="geometry" />
        </mxCell>
        <mxCell id="5LYVt8zB139youL8tXqR-49" style="edgeStyle=orthogonalEdgeStyle;rounded=0;orthogonalLoop=1;jettySize=auto;html=1;entryX=1;entryY=0.5;entryDx=0;entryDy=0;" edge="1" parent="5LYVt8zB139youL8tXqR-1" source="5LYVt8zB139youL8tXqR-39" target="5LYVt8zB139youL8tXqR-17">
          <mxGeometry relative="1" as="geometry" />
        </mxCell>
        <mxCell id="5LYVt8zB139youL8tXqR-51" style="edgeStyle=orthogonalEdgeStyle;rounded=0;orthogonalLoop=1;jettySize=auto;html=1;entryX=0;entryY=0.5;entryDx=0;entryDy=0;" edge="1" parent="5LYVt8zB139youL8tXqR-1" source="5LYVt8zB139youL8tXqR-50" target="5LYVt8zB139youL8tXqR-7">
          <mxGeometry relative="1" as="geometry" />
        </mxCell>
      </root>
    </mxGraphModel>
  </diagram>
  <diagram id="p9-Y66E1MyGbe_hyWz6X" name="interaction-diagram">
    <mxGraphModel dx="1621" dy="922" grid="1" gridSize="10" guides="1" tooltips="1" connect="1" arrows="1" fold="1" page="1" pageScale="1" pageWidth="827" pageHeight="1169" math="0" shadow="0">
      <root>
        <mxCell id="o72cVzZ-ScyBC4W3F3mp-0" />
        <mxCell id="o72cVzZ-ScyBC4W3F3mp-1" parent="o72cVzZ-ScyBC4W3F3mp-0" />
        <mxCell id="o72cVzZ-ScyBC4W3F3mp-27" value="" style="rounded=0;whiteSpace=wrap;html=1;" vertex="1" parent="o72cVzZ-ScyBC4W3F3mp-1">
          <mxGeometry x="440" y="120" width="40" height="320" as="geometry" />
        </mxCell>
        <mxCell id="o72cVzZ-ScyBC4W3F3mp-2" value="" style="rounded=0;whiteSpace=wrap;html=1;" vertex="1" parent="o72cVzZ-ScyBC4W3F3mp-1">
          <mxGeometry x="160" y="120" width="40" height="320" as="geometry" />
        </mxCell>
        <mxCell id="o72cVzZ-ScyBC4W3F3mp-3" value="Staff" style="shape=umlActor;verticalLabelPosition=bottom;verticalAlign=top;html=1;" vertex="1" parent="o72cVzZ-ScyBC4W3F3mp-1">
          <mxGeometry x="160" y="40" width="30" height="60" as="geometry" />
        </mxCell>
        <mxCell id="o72cVzZ-ScyBC4W3F3mp-5" value="SYSTEM" style="rounded=0;whiteSpace=wrap;html=1;" vertex="1" parent="o72cVzZ-ScyBC4W3F3mp-1">
          <mxGeometry x="400" y="20" width="120" height="60" as="geometry" />
        </mxCell>
        <mxCell id="o72cVzZ-ScyBC4W3F3mp-6" value="LOGIN" style="rounded=0;whiteSpace=wrap;html=1;" vertex="1" parent="o72cVzZ-ScyBC4W3F3mp-1">
          <mxGeometry x="374" y="120" width="66" height="40" as="geometry" />
        </mxCell>
        <mxCell id="o72cVzZ-ScyBC4W3F3mp-7" value="" style="endArrow=none;html=1;entryX=0;entryY=0.25;entryDx=0;entryDy=0;exitX=0.981;exitY=0.78;exitDx=0;exitDy=0;exitPerimeter=0;" edge="1" parent="o72cVzZ-ScyBC4W3F3mp-1" source="o72cVzZ-ScyBC4W3F3mp-2" target="o72cVzZ-ScyBC4W3F3mp-24">
          <mxGeometry width="50" height="50" relative="1" as="geometry">
            <mxPoint x="10" y="70" as="sourcePoint" />
            <mxPoint x="60" y="20" as="targetPoint" />
          </mxGeometry>
        </mxCell>
        <mxCell id="o72cVzZ-ScyBC4W3F3mp-29" value="4. Get Report" style="edgeLabel;html=1;align=center;verticalAlign=middle;resizable=0;points=[];" vertex="1" connectable="0" parent="o72cVzZ-ScyBC4W3F3mp-7">
          <mxGeometry x="0.3316" relative="1" as="geometry">
            <mxPoint as="offset" />
          </mxGeometry>
        </mxCell>
        <mxCell id="o72cVzZ-ScyBC4W3F3mp-9" value="" style="endArrow=none;html=1;entryX=0;entryY=0.25;entryDx=0;entryDy=0;" edge="1" parent="o72cVzZ-ScyBC4W3F3mp-1" target="o72cVzZ-ScyBC4W3F3mp-6">
          <mxGeometry width="50" height="50" relative="1" as="geometry">
            <mxPoint x="200" y="130" as="sourcePoint" />
            <mxPoint x="70" y="30" as="targetPoint" />
          </mxGeometry>
        </mxCell>
        <mxCell id="o72cVzZ-ScyBC4W3F3mp-15" value="1. Login" style="edgeLabel;html=1;align=center;verticalAlign=middle;resizable=0;points=[];" vertex="1" connectable="0" parent="o72cVzZ-ScyBC4W3F3mp-9">
          <mxGeometry x="0.1456" relative="1" as="geometry">
            <mxPoint as="offset" />
          </mxGeometry>
        </mxCell>
        <mxCell id="o72cVzZ-ScyBC4W3F3mp-11" value="" style="endArrow=none;dashed=1;html=1;entryX=0;entryY=0.75;entryDx=0;entryDy=0;exitX=0.994;exitY=0.095;exitDx=0;exitDy=0;exitPerimeter=0;" edge="1" parent="o72cVzZ-ScyBC4W3F3mp-1" source="o72cVzZ-ScyBC4W3F3mp-2" target="o72cVzZ-ScyBC4W3F3mp-6">
          <mxGeometry width="50" height="50" relative="1" as="geometry">
            <mxPoint x="60" y="100" as="sourcePoint" />
            <mxPoint x="110" y="50" as="targetPoint" />
          </mxGeometry>
        </mxCell>
        <mxCell id="o72cVzZ-ScyBC4W3F3mp-12" value="Input Car data" style="rounded=0;whiteSpace=wrap;html=1;" vertex="1" parent="o72cVzZ-ScyBC4W3F3mp-1">
          <mxGeometry x="374" y="200" width="66" height="40" as="geometry" />
        </mxCell>
        <mxCell id="o72cVzZ-ScyBC4W3F3mp-13" value="" style="endArrow=none;html=1;entryX=0;entryY=0.25;entryDx=0;entryDy=0;exitX=0.991;exitY=0.281;exitDx=0;exitDy=0;exitPerimeter=0;" edge="1" parent="o72cVzZ-ScyBC4W3F3mp-1" source="o72cVzZ-ScyBC4W3F3mp-2" target="o72cVzZ-ScyBC4W3F3mp-12">
          <mxGeometry width="50" height="50" relative="1" as="geometry">
            <mxPoint x="210.36" y="140.24" as="sourcePoint" />
            <mxPoint x="358" y="140" as="targetPoint" />
          </mxGeometry>
        </mxCell>
        <mxCell id="o72cVzZ-ScyBC4W3F3mp-17" value="2. Input Car data" style="edgeLabel;html=1;align=center;verticalAlign=middle;resizable=0;points=[];" vertex="1" connectable="0" parent="o72cVzZ-ScyBC4W3F3mp-13">
          <mxGeometry x="0.0263" y="1" relative="1" as="geometry">
            <mxPoint as="offset" />
          </mxGeometry>
        </mxCell>
        <mxCell id="o72cVzZ-ScyBC4W3F3mp-16" value="" style="endArrow=none;dashed=1;html=1;entryX=0;entryY=0.75;entryDx=0;entryDy=0;" edge="1" parent="o72cVzZ-ScyBC4W3F3mp-1" target="o72cVzZ-ScyBC4W3F3mp-12">
          <mxGeometry width="50" height="50" relative="1" as="geometry">
            <mxPoint x="200" y="230" as="sourcePoint" />
            <mxPoint x="358" y="160" as="targetPoint" />
          </mxGeometry>
        </mxCell>
        <mxCell id="o72cVzZ-ScyBC4W3F3mp-23" value="" style="edgeStyle=orthogonalEdgeStyle;rounded=0;orthogonalLoop=1;jettySize=auto;html=1;" edge="1" parent="o72cVzZ-ScyBC4W3F3mp-1" source="o72cVzZ-ScyBC4W3F3mp-18" target="o72cVzZ-ScyBC4W3F3mp-22">
          <mxGeometry relative="1" as="geometry" />
        </mxCell>
        <mxCell id="o72cVzZ-ScyBC4W3F3mp-18" value="Check history car services" style="rounded=0;whiteSpace=wrap;html=1;" vertex="1" parent="o72cVzZ-ScyBC4W3F3mp-1">
          <mxGeometry x="440" y="280" width="120" height="40" as="geometry" />
        </mxCell>
        <mxCell id="o72cVzZ-ScyBC4W3F3mp-19" value="" style="endArrow=none;html=1;entryX=0;entryY=0.25;entryDx=0;entryDy=0;exitX=1.022;exitY=0.531;exitDx=0;exitDy=0;exitPerimeter=0;" edge="1" parent="o72cVzZ-ScyBC4W3F3mp-1" source="o72cVzZ-ScyBC4W3F3mp-2" target="o72cVzZ-ScyBC4W3F3mp-18">
          <mxGeometry width="50" height="50" relative="1" as="geometry">
            <mxPoint x="20" y="80" as="sourcePoint" />
            <mxPoint x="70" y="30" as="targetPoint" />
          </mxGeometry>
        </mxCell>
        <mxCell id="o72cVzZ-ScyBC4W3F3mp-21" value="3. check history car" style="edgeLabel;html=1;align=center;verticalAlign=middle;resizable=0;points=[];" vertex="1" connectable="0" parent="o72cVzZ-ScyBC4W3F3mp-19">
          <mxGeometry x="0.1923" y="-2" relative="1" as="geometry">
            <mxPoint y="-2" as="offset" />
          </mxGeometry>
        </mxCell>
        <mxCell id="o72cVzZ-ScyBC4W3F3mp-20" value="" style="endArrow=none;dashed=1;html=1;entryX=0;entryY=0.75;entryDx=0;entryDy=0;exitX=1.036;exitY=0.593;exitDx=0;exitDy=0;exitPerimeter=0;" edge="1" parent="o72cVzZ-ScyBC4W3F3mp-1" source="o72cVzZ-ScyBC4W3F3mp-2" target="o72cVzZ-ScyBC4W3F3mp-18">
          <mxGeometry width="50" height="50" relative="1" as="geometry">
            <mxPoint x="60" y="99.99999999999989" as="sourcePoint" />
            <mxPoint x="110" y="49.999999999999886" as="targetPoint" />
          </mxGeometry>
        </mxCell>
        <mxCell id="o72cVzZ-ScyBC4W3F3mp-22" value="Payment" style="rounded=0;whiteSpace=wrap;html=1;" vertex="1" parent="o72cVzZ-ScyBC4W3F3mp-1">
          <mxGeometry x="600" y="280" width="80" height="40" as="geometry" />
        </mxCell>
        <mxCell id="o72cVzZ-ScyBC4W3F3mp-24" value="Report" style="rounded=0;whiteSpace=wrap;html=1;" vertex="1" parent="o72cVzZ-ScyBC4W3F3mp-1">
          <mxGeometry x="360" y="360" width="80" height="40" as="geometry" />
        </mxCell>
        <mxCell id="o72cVzZ-ScyBC4W3F3mp-25" value="" style="endArrow=none;dashed=1;html=1;entryX=-0.024;entryY=0.627;entryDx=0;entryDy=0;entryPerimeter=0;exitX=0.987;exitY=0.83;exitDx=0;exitDy=0;exitPerimeter=0;" edge="1" parent="o72cVzZ-ScyBC4W3F3mp-1" source="o72cVzZ-ScyBC4W3F3mp-2" target="o72cVzZ-ScyBC4W3F3mp-24">
          <mxGeometry width="50" height="50" relative="1" as="geometry">
            <mxPoint x="60" y="100" as="sourcePoint" />
            <mxPoint x="110" y="50" as="targetPoint" />
          </mxGeometry>
        </mxCell>
        <mxCell id="o72cVzZ-ScyBC4W3F3mp-28" value="" style="endArrow=none;dashed=1;html=1;entryX=0.5;entryY=1;entryDx=0;entryDy=0;exitX=0.5;exitY=0;exitDx=0;exitDy=0;" edge="1" parent="o72cVzZ-ScyBC4W3F3mp-1" source="o72cVzZ-ScyBC4W3F3mp-27" target="o72cVzZ-ScyBC4W3F3mp-5">
          <mxGeometry width="50" height="50" relative="1" as="geometry">
            <mxPoint x="60" y="100" as="sourcePoint" />
            <mxPoint x="110" y="50" as="targetPoint" />
          </mxGeometry>
        </mxCell>
      </root>
    </mxGraphModel>
  </diagram>
</mxfile>
